<?xml version="1.0"?><svg width="620.3732933333333" height="481.18668" xmlns="http://www.w3.org/2000/svg">
 <title>Dinner Plate</title>

 <metadata id="metadata7">image/svg+xml</metadata>
 <g>
  <title>Layer 1</title>
  <g id="layer1">
   <path d="m2.41858,157.717529c0,35.764984 29.926871,169.863892 37.433082,200.972351c5.546188,22.985382 13.998959,46.637604 23.821049,66.990753c12.959766,26.855072 43.673641,35.993347 68.060139,42.309967c35.242569,9.128662 76.0634,10.577515 112.299225,10.577515c34.10907,0 71.746368,-11.434448 104.464905,-19.909332c8.011536,-2.075104 28.941467,-4.70108 36.881805,-7.051666c30.872101,-9.138947 46.682159,-17.335541 79.848785,-25.926483c22.553558,-5.841888 46.14798,-20.875427 64.657074,-35.25827c22.941467,-17.827087 40.934875,-40.095886 57.851196,-63.464996c3.402954,-4.70105 6.805969,-9.402191 10.208984,-14.103271c13.054016,-18.033478 20.418091,-48.246979 20.418091,-70.516602c0,-27.080063 3.44989,-47.477203 -6.80603,-74.04245c-10.096497,-26.152039 -32.31958,-44.063606 -51.045105,-63.464935c-22.265259,-23.068855 -39.361328,-46.724499 -65.685486,-60.36158c-26.845673,-13.90733 -65.69104,-14.4604 -95.28421,-24.680828c-37.300323,-12.882201 -82.385559,-17.206661 -121.479919,-17.206661c-29.593719,0 -59.332718,0 -88.478195,0c-30.354202,0 -27.18573,4.97503 -56.26091,10.99997c-20.524231,4.25298 -130.904479,102.562621 -130.904479,144.136519z" id="path3150" stroke-width="0.814146px" fill-rule="evenodd" fill="none"/>
   <path id="path1307" d="m474.390198,373.892914a203.06636,213.043961 0 1 1 -48.009827,-320.753353" stroke-dashoffset="0" stroke-miterlimit="0" stroke-linecap="round" stroke-width="11.3" stroke="#000000" fill="none"/>
   <path id="path2182" d="m204.966675,129.333145a151.197586,158.444901 0 1 1 116.383942,259.627029" stroke-dashoffset="0" stroke-miterlimit="0" stroke-linecap="round" stroke-width="11.299914" stroke="#000000" fill="none"/>
   <path d="m504.805145,138.86409l0.599792,-54.294052c0,0 -0.899719,-10.85881 7.497528,-10.85881c8.097351,0 6.597839,10.85881 6.597839,10.85881l-0.299866,54.294052c0,0 -0.899719,5.429428 5.997986,5.748795c6.897766,0.319382 5.69812,-6.068176 5.69812,-6.068176l-0.299866,-53.335915c0,0 -0.599792,-11.497566 6.597839,-11.497566c7.197632,0 5.69812,11.81694 5.69812,11.81694l0,54.613434c0,0 2.249268,4.7108 7.197632,4.471268c4.948364,-0.239517 5.773071,-4.551117 5.923035,-4.431351l0.674805,-54.333977c0,0 0,-11.497559 6.297852,-11.816956c6.297974,-0.319359 6.297974,11.816956 6.297974,11.816956l-0.299927,57.487831c0,0 3.358215,46.44397 -17.145813,49.567612c-18.148438,2.764801 7.1604,165.176147 0.393982,170.008667c-6.400818,4.571472 -8.003235,5.374603 -14.001282,5.694c-5.997986,0.319366 -11.865662,-1.970337 -15.697754,-6.597351c-7.059998,-8.524384 15.378235,-167.991348 1.808228,-170.054047c-17.682556,-2.687805 -19.836151,-53.409546 -19.536224,-53.090164z" id="path4031" stroke-miterlimit="4" stroke-width="5.883" stroke="#000000" fill-rule="evenodd" fill-opacity="0.75" fill="none"/>
   <path d="m38.252579,104.516579c8.097332,-16.288231 24.591923,-18.955795 31.789551,-18.955795c7.197624,0 26.587044,1.816833 32.089447,20.233299c5.572716,18.651711 3.058266,103.931778 -17.445747,107.055435c-18.14843,2.764816 7.160393,165.176117 0.393997,170.008667c-6.400833,4.571442 -8.00325,5.374603 -14.001289,5.694c-5.998009,0.319366 -11.272007,-0.724609 -15.104095,-5.351624c-7.059952,-8.524414 14.784592,-167.368546 1.214569,-169.431244c-17.68256,-2.687805 -27.033772,-92.964531 -18.936432,-109.252739z" id="path8399" stroke-miterlimit="4" stroke-width="5.883" stroke="#000000" fill-rule="evenodd" fill-opacity="0.75" fill="none"/>
   <path id="path8401" d="m70.976311,105.856087a19.887991,41.146889 0 1 1 1.061462,81.984657" stroke-dashoffset="0" stroke-miterlimit="4" stroke-linecap="round" stroke-width="5.883" stroke="#000000" fill="none"/>
  </g>
 </g>
</svg>